<svg id="Layer_1" data-name="Layer 1" xmlns="http://www.w3.org/2000/svg" viewBox="0 0 611.04 139.2"><defs><style>.cls-1{fill:#fff;}</style></defs><path class="cls-1" d="M611,393.45V465.2H0V404.46c3.09,5.31,8.49,7.7,13.55,10.43,3.47,1.88,3.54,1.69,5.58-1.85,3.64-6.32,7.23-12.68,11-18.91,1.08-1.77.89-2.45-.87-3.44C22.64,387,16.09,383,9.44,379.25,6.36,377.5,3.15,376,0,374.32v-5.74c2.64,1.41,5.3,2.78,7.91,4.25,7.82,4.45,15.68,8.84,23.39,13.46,2,1.21,2.88.87,3.87-1,1.32-2.53,2.82-5,4.26-7.44,2.49-4.25,5-8.51,7.5-12.74.81-1.38.62-2.3-.88-3.08-2.12-1.1-4.14-2.38-6.21-3.57-8.21-4.74-16.4-9.5-24.67-14.14a3.47,3.47,0,0,0-2.77.28c-4.7,2.47-9.46,4.91-12.4,9.64V326H43.68c-1.41,1-2.76,2.08-4.24,2.94-6.06,3.53-12.16,7-18.23,10.51a6.91,6.91,0,0,0-1.35,1.44,8.78,8.78,0,0,0,1.36,1.17c3.51,2,7.06,4,10.58,6,5.52,3.19,11.05,6.36,16.51,9.65,1.67,1,2.58.56,3.45-1,3.45-6.09,7-12.11,10.41-18.22,2.87-5.16,2.74-5.08-2.74-7.76A80.41,80.41,0,0,1,51.84,326H611v61.71c-.4,0-.79-.13-1.19-.13q-33,0-66,0c-2,0-2.58,1-2.85,2.72-.71,4.57-1.47,9.12-2.31,13.66-.48,2.63-.4,2.84,2.36,2.84,6.64,0,13.28,0,19.92,0,.82,0,1.64.13,2.49.2-3.31,19.34-6.56,38.38-9.85,57.61h19.73c.72-4.7,1.35-9.35,2.14-14,1.19-7,2.52-14,3.71-20.95,1.1-6.43,2.06-12.89,3.14-19.32.61-3.6.68-3.84,4.41-3.53a18.29,18.29,0,0,0,12.36-3.45c1.44-1,3-1.83,4.51-2.72C606.69,398.86,610.45,397.79,611,393.45ZM119.19,445.57c.27-1.06.47-1.89.69-2.71.41-1.51-.07-2.27-1.73-2.26-5.28,0-10.56-.07-15.83.09a3,3,0,0,0-2.19,1.84c-.58,3.28-.85,6.62-1.18,9.94-.54,5.36,6.46,12.5,12.53,12.36,13.59-.31,27.2-.38,40.78,0,7.61.23,15-6.39,16-12.48s2.15-12.23,3.42-18.31c2-9.64-4.16-17.42-14-17.45-10.24,0-20.48,0-30.71,0h-2.76c.47-2.76,1-5.16,1.24-7.58.15-1.94,1-2.31,2.76-2.29,8.63.07,17.27,0,25.91,0,.76,0,1.51.12,2.39.18-.07.75-.08,1.22-.17,1.67-.6,3.27-.56,3.32,2.86,3.33,4.56,0,9.12-.08,13.67,0,1.83,0,2.67-.66,2.92-2.35a26.24,26.24,0,0,1,.75-4.47c2.69-8-3.63-18-13.9-17.66-10.55.32-21.11,0-31.67.11a8.4,8.4,0,0,0-3.87.89c-4.69,2.55-9.17,5.51-13.94,7.87-4.1,2-6.55,4.62-6.9,9.45-.4,5.54-2,11-2.28,16.54-.42,7.51,5.82,13.52,13.35,13.54h31.43c.91,0,1.81.12,2.86.19-.38,2.61-.77,4.89-1,7.17-.2,1.84-1,2.53-2.94,2.5-8.72-.09-17.44,0-26.15,0C120.83,445.73,120.13,445.64,119.19,445.57Zm398.68,19.16c1-5.37,1.84-10.54,2.86-15.69.61-3.13.56-3.31-2.6-3.31H473.74c-.91,0-1.83-.1-3-.17.51-2.9,1.13-5.46,1.34-8.05.17-2,.9-2.7,3-2.68,9.43.1,18.87.06,28.31,0a6.86,6.86,0,0,0,3-.51c8-4,8-4,9.55-12.83,0-.23.07-.47.11-.71.5-3.07.5-3.07-2.66-3.07-11.75,0-23.51,0-35.27,0-2,0-2.82-.43-2.21-2.59a23.12,23.12,0,0,0,1-5.63c.07-2.54,1.34-2.84,3.51-2.83,14.88.09,29.75,0,44.63.08,2,0,2.94-.54,3.21-2.75.55-4.5,1.46-9,2.31-13.42.57-2.94.57-3.05-2.3-3.05-15.28,0-30.55,0-45.82,0a7.76,7.76,0,0,0-3.65.86q-9.41,5.22-18.67,10.71a3.76,3.76,0,0,0-1.22,2.38c-1.15,6.1-2.23,12.22-3.28,18.34-1.74,10.2-3.57,20.4-5.13,30.63-1,6.68,5.67,14.35,12.59,14.27,17.43-.2,34.87-.07,52.3-.07Zm-251-57.82c-.39,2.95-.65,5.56-1.1,8.13-.27,1.51.21,2.06,1.69,2q7.8,0,15.6,0c1.34,0,2-.59,2.18-2,.59-3.78,1.13-7.58,2-11.29,1.86-7.64-4.57-16.62-14.12-16.34-10.62.31-21.27,0-31.91.1a8,8,0,0,0-3.64.85c-6,3.34-11.93,6.75-17.8,10.28a4.83,4.83,0,0,0-2.08,2.83c-1.41,7.67-2.6,15.38-3.94,23.07-1.42,8.16-2.71,16.35-4.45,24.45-1.57,7.37,5.53,15.92,12.76,15.75q20.38-.49,40.79,0c6.92.17,14.21-5.59,15.47-11.31,1.22-5.51,2.24-11.07,3.21-16.63.07-.41-1-1.43-1.53-1.44q-8.16-.17-16.32,0a2.46,2.46,0,0,0-1.75,1.45,30,30,0,0,0-1,6.35c0,2-.78,2.54-2.7,2.52-8.64-.09-17.28,0-25.92,0-.76,0-1.53-.11-2.59-.2.49-3.17.9-6.08,1.39-9,1.54-9.19,3.15-18.37,4.63-27.57.3-1.83,1.1-2.28,2.86-2.26,8.64.08,17.27,0,25.91,0C265.22,406.77,265.92,406.85,266.84,406.91Zm43.32,38.63a17.17,17.17,0,0,1,.11-1.8q4.53-27,9.13-53.95c.28-1.6,0-2.24-1.67-2.23-5.2,0-10.4-.05-15.59.09a2.82,2.82,0,0,0-2.08,1.68c-.86,4-1.49,8-2.17,12-1.52,8.95-3.06,17.9-4.55,26.86q-1.83,11.07-3.57,22.16c-1,6.74,5.43,14.73,13.05,14.49,11.27-.37,22.55-.09,33.83-.11a5.46,5.46,0,0,0,2.55-.35c5.88-3.36,11.65-6.9,17.57-10.19a5.81,5.81,0,0,0,3.17-4.67q1.06-7.32,2.27-14.63,2.27-13.54,4.62-27.07,1.55-9,3.2-17.88c.29-1.57,0-2.41-1.86-2.38-5.2.07-10.4-.06-15.59.1a3.16,3.16,0,0,0-2.25,1.81c-.48,1.48-.32,3.15-.59,4.71-2.86,16.48-5.78,32.95-8.58,49.44-.3,1.75-1,2.17-2.63,2.16-8.72-.07-17.44,0-26.16,0C311.68,445.72,311,445.61,310.16,445.54Zm107.85,19c.87.06,1.57.14,2.27.15,5,0,10.07-.08,15.11,0,1.84.05,2.54-.57,2.74-2.35.38-3.4.89-6.79,1.47-10.15,1.13-6.59,2.37-13.16,3.51-19.75,1.59-9.18,2.8-18.43,4.78-27.53s-4.26-17.76-14-17.49c-10.63.3-21.27,0-31.9.11a8.3,8.3,0,0,0-3.85,1c-5.7,3.18-11.29,6.59-17,9.75-1.6.89-2.64,1.81-2.95,3.68-1.34,8.32-2.77,16.64-4.17,24.95q-2.42,14.37-4.84,28.73c-.49,2.93-1,5.86-1.47,8.88h19.39c1.68-9.37,3.37-18.6,5-27.84s3.21-18.5,4.69-27.77c.3-1.88,1.16-2.25,2.87-2.24,8.56.08,17.11,0,25.67,0,.77,0,1.55.07,2.58.11C424.57,426.22,421.3,445.3,418,464.58ZM43.32,432a17.66,17.66,0,0,0,1.56-2c2.77-4.83,5.45-9.71,8.24-14.53q11.49-19.81,23-39.6c4.83-8.32,9.61-16.67,14.51-25,.82-1.39.33-2-.8-2.62-5.34-3-10.7-6-16-9.18-4.56-2.73-4.51-2.81-7.13,1.56-.12.2-.27.39-.39.6-4.66,8-9.35,15.92-14,23.91-5.64,9.78-11.19,19.61-16.84,29.39-4.46,7.7-9,15.36-13.52,23-.6,1-.84,1.77.49,2.52,6.53,3.69,13,7.47,19.5,11.21C42.37,431.56,42.72,431.72,43.32,432Zm133.55,32.29a21,21,0,0,0,17.68-3.79c1.57-1.15,3.11-2,3.46-4.22,1.26-8.19,2.65-16.34,4-24.51,1.58-9.42,3.2-18.83,4.8-28.25.77-4.55,1.59-9.1,2.26-13.67.1-.69-.48-2.12-.75-2.13-3.18,0-6.55-.5-9.48.4-3.19,1-6,3.19-8.92,5a3.81,3.81,0,0,0-1.41,2.32c-.52,2.57-.76,5.2-1.21,7.78-1.09,6.2-2.27,12.38-3.34,18.57-1.62,9.42-3.18,18.85-4.76,28.28C178.44,454.82,177.67,459.52,176.87,464.32ZM49.39,432.15l.71.78c2-1,4.14-1.83,6.08-3,11.31-6.56,22.53-13.26,33.89-19.74a10.59,10.59,0,0,0,5.67-9.59c.17-14.18.08-28.37,0-42.55a18.22,18.22,0,0,0-.65-3.45l-.86-.05Z" transform="translate(0 -326)"/><path d="M611,393.45c-.59,4.34-4.35,5.41-7.42,7.2-1.52.89-3.07,1.73-4.51,2.72a18.29,18.29,0,0,1-12.36,3.45c-3.73-.31-3.8-.07-4.41,3.53-1.08,6.43-2,12.89-3.14,19.32-1.19,7-2.52,13.95-3.71,20.95-.79,4.61-1.42,9.26-2.14,14H553.62c3.29-19.23,6.54-38.27,9.85-57.61-.85-.07-1.67-.2-2.49-.2-6.64,0-13.28,0-19.92,0-2.76,0-2.84-.21-2.36-2.84.84-4.54,1.6-9.09,2.31-13.66.27-1.7.81-2.73,2.85-2.72q33,.07,66,0c.4,0,.79.09,1.19.13Z" transform="translate(0 -326)"/><path d="M0,354.23c2.94-4.73,7.7-7.17,12.4-9.64a3.47,3.47,0,0,1,2.77-.28c8.27,4.64,16.46,9.4,24.67,14.14,2.07,1.19,4.09,2.47,6.21,3.57,1.5.78,1.69,1.7.88,3.08-2.52,4.23-5,8.49-7.5,12.74-1.44,2.47-2.94,4.91-4.26,7.44-1,1.88-1.86,2.22-3.87,1-7.71-4.62-15.57-9-23.39-13.46C5.3,371.36,2.64,370,0,368.58Z" transform="translate(0 -326)"/><path d="M51.84,326a80.41,80.41,0,0,0,7.59,4.78c5.48,2.68,5.61,2.6,2.74,7.76-3.4,6.11-7,12.13-10.41,18.22-.87,1.53-1.78,2-3.45,1-5.46-3.29-11-6.46-16.51-9.65-3.52-2-7.07-4-10.58-6a8.78,8.78,0,0,1-1.36-1.17,6.91,6.91,0,0,1,1.35-1.44c6.07-3.53,12.17-7,18.23-10.51,1.48-.86,2.83-1.95,4.24-2.94Z" transform="translate(0 -326)"/><path d="M0,374.32c3.15,1.64,6.36,3.18,9.44,4.93C16.09,383,22.64,387,29.3,390.69c1.76,1,1.95,1.67.87,3.44-3.81,6.23-7.4,12.59-11,18.91-2,3.54-2.11,3.73-5.58,1.85C8.49,412.16,3.09,409.77,0,404.46Z" transform="translate(0 -326)"/><path d="M119.19,445.57c.94.07,1.64.16,2.33.16,8.71,0,17.43-.05,26.15,0,1.94,0,2.74-.66,2.94-2.5.25-2.28.64-4.56,1-7.17-1-.07-1.95-.19-2.86-.19H117.34c-7.53,0-13.77-6-13.35-13.54.31-5.54,1.88-11,2.28-16.54.35-4.83,2.8-7.42,6.9-9.45,4.77-2.36,9.25-5.32,13.94-7.87a8.4,8.4,0,0,1,3.87-.89c10.56-.07,21.12.21,31.67-.11,10.27-.32,16.59,9.62,13.9,17.66a26.24,26.24,0,0,0-.75,4.47c-.25,1.69-1.09,2.4-2.92,2.35-4.55-.12-9.11,0-13.67,0-3.42,0-3.46-.06-2.86-3.33.09-.45.1-.92.17-1.67-.88-.06-1.63-.17-2.39-.18-8.64,0-17.28,0-25.91,0-1.75,0-2.61.35-2.76,2.29-.19,2.42-.77,4.82-1.24,7.58H127c10.23,0,20.47,0,30.71,0,9.87,0,16,7.81,14,17.45-1.27,6.08-2.39,12.19-3.42,18.31s-8.43,12.71-16,12.48c-13.58-.39-27.19-.32-40.78,0-6.07.14-13.07-7-12.53-12.36.33-3.32.6-6.66,1.18-9.94a3,3,0,0,1,2.19-1.84c5.27-.16,10.55-.06,15.83-.09,1.66,0,2.14.75,1.73,2.26C119.66,443.68,119.46,444.51,119.19,445.57Z" transform="translate(0 -326)"/><path d="M517.87,464.73h-2.49c-17.43,0-34.87-.13-52.3.07-6.92.08-13.61-7.59-12.59-14.27,1.56-10.23,3.39-20.43,5.13-30.63,1.05-6.12,2.13-12.24,3.28-18.34a3.76,3.76,0,0,1,1.22-2.38q9.25-5.49,18.67-10.71a7.76,7.76,0,0,1,3.65-.86c15.27-.06,30.54,0,45.82,0,2.87,0,2.87.11,2.3,3.05-.85,4.46-1.76,8.92-2.31,13.42-.27,2.21-1.17,2.76-3.21,2.75-14.88-.06-29.75,0-44.63-.08-2.17,0-3.44.29-3.51,2.83a23.12,23.12,0,0,1-1,5.63c-.61,2.16.22,2.6,2.21,2.59,11.76-.07,23.52,0,35.27,0,3.16,0,3.16,0,2.66,3.07,0,.24-.07.48-.11.71-1.58,8.79-1.56,8.81-9.55,12.83a6.86,6.86,0,0,1-3,.51c-9.44,0-18.88.08-28.31,0-2.06,0-2.79.64-3,2.68-.21,2.59-.83,5.15-1.34,8.05,1.14.07,2.06.17,3,.17h44.39c3.16,0,3.21.18,2.6,3.31C519.71,454.19,518.84,459.36,517.87,464.73Z" transform="translate(0 -326)"/><path d="M266.84,406.91c-.92-.06-1.62-.14-2.32-.15-8.64,0-17.27,0-25.91,0-1.76,0-2.56.43-2.86,2.26-1.48,9.2-3.09,18.38-4.63,27.57-.49,2.89-.9,5.8-1.39,9,1.06.09,1.83.2,2.59.2,8.64,0,17.28,0,25.92,0,1.92,0,2.66-.49,2.7-2.52a30,30,0,0,1,1-6.35,2.46,2.46,0,0,1,1.75-1.45q8.16-.17,16.32,0c.54,0,1.6,1,1.53,1.44-1,5.56-2,11.12-3.21,16.63-1.26,5.72-8.55,11.48-15.47,11.31q-20.38-.51-40.79,0c-7.23.17-14.33-8.38-12.76-15.75,1.74-8.1,3-16.29,4.45-24.45,1.34-7.69,2.53-15.4,3.94-23.07a4.83,4.83,0,0,1,2.08-2.83c5.87-3.53,11.81-6.94,17.8-10.28a8,8,0,0,1,3.64-.85c10.64-.06,21.29.21,31.91-.1,9.55-.28,16,8.7,14.12,16.34-.91,3.71-1.45,7.51-2,11.29-.21,1.37-.84,2-2.18,2q-7.8,0-15.6,0c-1.48,0-2-.54-1.69-2C266.19,412.47,266.45,409.86,266.84,406.91Z" transform="translate(0 -326)"/><path d="M310.16,445.54c.82.07,1.52.18,2.21.18,8.72,0,17.44,0,26.16,0,1.65,0,2.33-.41,2.63-2.16,2.8-16.49,5.72-33,8.58-49.44.27-1.56.11-3.23.59-4.71a3.16,3.16,0,0,1,2.25-1.81c5.19-.16,10.39,0,15.59-.1,1.86,0,2.15.81,1.86,2.38q-1.65,8.94-3.2,17.88-2.35,13.53-4.62,27.07-1.21,7.31-2.27,14.63a5.81,5.81,0,0,1-3.17,4.67c-5.92,3.29-11.69,6.83-17.57,10.19a5.46,5.46,0,0,1-2.55.35c-11.28,0-22.56-.26-33.83.11-7.62.24-14.1-7.75-13.05-14.49q1.74-11.08,3.57-22.16c1.49-9,3-17.91,4.55-26.86.68-4,1.31-8,2.17-12a2.82,2.82,0,0,1,2.08-1.68c5.19-.14,10.39-.06,15.59-.09,1.65,0,1.95.63,1.67,2.23q-4.65,27-9.13,53.95A17.17,17.17,0,0,0,310.16,445.54Z" transform="translate(0 -326)"/><path d="M418,464.58c3.29-19.28,6.56-38.36,9.87-57.71-1,0-1.81-.11-2.58-.11-8.56,0-17.11,0-25.67,0-1.71,0-2.57.36-2.87,2.24-1.48,9.27-3.07,18.52-4.69,27.77s-3.3,18.47-5,27.84H367.7c.5-3,1-5.95,1.47-8.88Q371.58,441.32,374,427c1.4-8.31,2.83-16.63,4.17-24.95.31-1.87,1.35-2.79,2.95-3.68,5.71-3.16,11.3-6.57,17-9.75a8.3,8.3,0,0,1,3.85-1c10.63-.08,21.27.19,31.9-.11,9.75-.27,16,8.53,14,17.49s-3.19,18.35-4.78,27.53c-1.14,6.59-2.38,13.16-3.51,19.75-.58,3.36-1.09,6.75-1.47,10.15-.2,1.78-.9,2.4-2.74,2.35-5-.12-10.08,0-15.11,0C419.58,464.72,418.88,464.64,418,464.58Z" transform="translate(0 -326)"/><path d="M43.32,432c-.6-.31-1-.47-1.29-.66-6.5-3.74-13-7.52-19.5-11.21-1.33-.75-1.09-1.51-.49-2.52,4.51-7.67,9.06-15.33,13.52-23,5.65-9.78,11.2-19.61,16.84-29.39,4.62-8,9.31-15.94,14-23.91.12-.21.27-.4.39-.6,2.62-4.37,2.57-4.29,7.13-1.56,5.27,3.15,10.63,6.14,16,9.18,1.13.65,1.62,1.23.8,2.62-4.9,8.29-9.68,16.64-14.51,25q-11.5,19.8-23,39.6c-2.79,4.82-5.47,9.7-8.24,14.53A17.66,17.66,0,0,1,43.32,432Z" transform="translate(0 -326)"/><path d="M176.87,464.32c.8-4.8,1.57-9.5,2.36-14.2,1.58-9.43,3.14-18.86,4.76-28.28,1.07-6.19,2.25-12.37,3.34-18.57.45-2.58.69-5.21,1.21-7.78a3.81,3.81,0,0,1,1.41-2.32c2.89-1.83,5.73-4.05,8.92-5,2.93-.9,6.3-.44,9.48-.4.27,0,.85,1.44.75,2.13-.67,4.57-1.49,9.12-2.26,13.67-1.6,9.42-3.22,18.83-4.8,28.25-1.38,8.17-2.77,16.32-4,24.51-.35,2.21-1.89,3.07-3.46,4.22A21,21,0,0,1,176.87,464.32Z" transform="translate(0 -326)"/><path d="M49.39,432.15l44.87-77.56.86.05a18.22,18.22,0,0,1,.65,3.45c0,14.18.14,28.37,0,42.55a10.59,10.59,0,0,1-5.67,9.59C78.71,416.71,67.49,423.41,56.18,430c-1.94,1.13-4,2-6.08,3Z" transform="translate(0 -326)"/></svg>