<?xml version="1.0" standalone="no"?>
<!DOCTYPE svg PUBLIC "-//W3C//DTD SVG 20010904//EN"
 "http://www.w3.org/TR/2001/REC-SVG-20010904/DTD/svg10.dtd">
<svg version="1.0" xmlns="http://www.w3.org/2000/svg"
 width="180.000000pt" height="201.000000pt" viewBox="0 0 180.000000 201.000000"
 preserveAspectRatio="xMidYMid meet">

<g transform="translate(0.000000,201.000000) scale(0.100000,-0.100000)"
fill="#000000" stroke="none">
<path d="M855 2000 c-3 -5 -13 -10 -21 -10 -9 0 -35 -13 -59 -30 -24 -16 -46
-30 -49 -30 -5 0 -114 -63 -279 -161 -27 -16 -53 -29 -59 -29 -6 0 -6 -6 2
-15 7 -8 16 -15 21 -15 5 0 43 -21 86 -46 148 -88 188 -111 233 -136 25 -14
80 -46 123 -72 43 -25 83 -46 91 -46 7 0 19 12 27 28 8 15 42 76 76 135 35 60
63 112 63 116 0 4 8 16 18 27 9 10 30 45 46 76 33 64 31 71 -31 103 -21 10
-49 27 -63 36 -105 68 -206 100 -225 69z"/>
<path d="M1301 1787 c-6 -6 -11 -14 -11 -18 0 -4 -22 -44 -50 -89 -27 -45 -50
-84 -50 -87 0 -3 -15 -31 -34 -62 -19 -31 -43 -73 -55 -93 -12 -21 -29 -53
-40 -70 -41 -72 -95 -165 -113 -198 -11 -19 -29 -47 -39 -62 -11 -14 -19 -30
-19 -35 0 -5 -14 -30 -30 -57 -17 -26 -47 -77 -67 -114 -20 -37 -48 -85 -62
-107 -15 -22 -40 -65 -56 -95 -16 -30 -41 -75 -57 -99 -15 -25 -28 -51 -28
-58 0 -7 -4 -13 -10 -13 -5 0 -10 -4 -10 -10 0 -5 -16 -34 -35 -65 -20 -30
-39 -63 -42 -73 -4 -9 -21 -41 -40 -70 -35 -55 -41 -82 -20 -82 7 0 28 -11 47
-23 19 -13 60 -37 90 -54 30 -16 71 -39 90 -50 19 -11 63 -36 97 -56 l62 -35
14 21 c8 12 31 54 52 92 21 39 51 89 67 112 15 23 28 44 28 47 0 3 29 55 65
116 36 61 65 113 65 115 0 1 18 33 40 69 22 36 40 68 40 70 0 3 25 45 55 95
30 50 55 93 55 96 0 2 16 29 35 60 20 30 39 63 42 73 4 9 22 40 40 69 18 29
33 57 33 63 0 5 3 10 8 10 4 0 13 14 21 30 7 17 37 71 67 121 30 49 54 92 54
95 0 3 9 18 20 34 11 15 36 58 56 95 28 54 33 70 22 77 -37 23 -121 72 -188
109 -41 23 -86 50 -100 59 -62 43 -98 58 -109 47z"/>
<path d="M186 1622 c-89 -49 -136 -89 -163 -142 -20 -36 -23 -57 -23 -149 0
-117 -6 -105 74 -151 59 -33 151 -87 241 -140 132 -77 144 -84 215 -124 36
-21 69 -42 75 -47 18 -18 31 -8 65 49 18 31 46 77 61 102 14 25 38 65 51 90
30 55 58 103 87 152 l22 37 -28 17 c-15 9 -46 28 -68 42 -22 14 -62 38 -90 52
-27 15 -72 40 -100 57 -57 34 -217 127 -287 167 -26 14 -50 26 -55 25 -4 0
-39 -17 -77 -37z"/>
<path d="M1782 1452 c-1 -7 -15 -32 -30 -55 -15 -23 -41 -67 -56 -97 -16 -30
-41 -73 -55 -95 -15 -22 -33 -53 -41 -70 -8 -16 -29 -52 -46 -80 -17 -27 -45
-75 -61 -105 -46 -85 -74 -133 -94 -162 -11 -14 -19 -29 -19 -33 0 -4 -8 -19
-18 -33 -11 -15 -32 -52 -48 -82 -15 -30 -36 -66 -45 -80 -9 -14 -25 -41 -36
-60 -11 -19 -37 -66 -59 -103 -21 -38 -50 -88 -63 -110 -13 -23 -45 -79 -72
-124 -27 -45 -49 -85 -49 -88 0 -4 -9 -20 -21 -37 -12 -16 -19 -31 -16 -34 6
-6 92 36 152 74 22 14 63 38 90 52 48 26 155 89 260 153 28 17 64 37 80 45 52
26 179 105 203 126 52 47 52 46 49 546 -1 256 -3 459 -5 452z"/>
<path d="M0 816 c0 -166 4 -267 10 -271 6 -3 10 -13 10 -21 0 -30 47 -77 130
-128 103 -65 156 -90 169 -81 6 3 27 36 47 73 20 37 51 90 68 117 17 28 38 64
46 80 8 17 34 61 58 98 50 80 58 67 -83 147 -49 27 -110 62 -135 77 -68 39
-187 108 -268 154 -18 11 -37 19 -42 19 -6 0 -10 -100 -10 -264z"/>
</g>
</svg>
